<svg width="282" height="282" viewBox="0 0 282 282" fill="none" xmlns="http://www.w3.org/2000/svg">
    <mask id="mask0_25756_2411" style="mask-type:alpha" maskUnits="userSpaceOnUse" x="26" y="26" width="230" height="230">
        <path fill-rule="evenodd" clip-rule="evenodd" d="M30.3572 111.354C13.9839 172.46 50.2469 235.27 111.353 251.643C172.459 268.016 235.269 231.753 251.642 170.647C268.015 109.541 231.752 46.7317 170.646 30.3583C109.54 13.985 46.7305 50.2481 30.3572 111.354ZM93.5814 128.295C86.5643 154.483 102.106 181.402 128.294 188.419C154.482 195.436 181.401 179.895 188.418 153.706C195.435 127.518 179.894 100.6 153.705 93.5826C127.517 86.5654 100.599 102.107 93.5814 128.295Z" fill="#D9D9D9"/>
    </mask>
    <g mask="url(#mask0_25756_2411)">
        <path fill-rule="evenodd" clip-rule="evenodd" d="M-94.5381 71.6763L379.644 198.733L376.538 210.324L-97.644 83.2674L-94.5381 71.6763Z" fill="url(#paint0_linear_25756_2411)"/>
        <path fill-rule="evenodd" clip-rule="evenodd" d="M119.169 180.327L162.932 16.9976L184.007 22.6445L140.243 185.974L119.169 180.327Z" fill="url(#paint1_linear_25756_2411)"/>
        <path fill-rule="evenodd" clip-rule="evenodd" d="M74.8369 377.386L138.365 140.295L143.634 141.707L80.1056 378.798L74.8369 377.386Z" fill="url(#paint2_linear_25756_2411)"/>
        <path fill-rule="evenodd" clip-rule="evenodd" d="M-75.3884 257.115L349.751 11.6602L357.388 24.8867L-67.7521 270.341L-75.3884 257.115Z" fill="url(#paint3_linear_25756_2411)"/>
        <path fill-rule="evenodd" clip-rule="evenodd" d="M259.948 355.752L14.4933 -69.3877L22.0513 -73.7513L267.506 351.388L259.948 355.752Z" fill="url(#paint4_linear_25756_2411)"/>
        <path fill-rule="evenodd" clip-rule="evenodd" d="M-50.5782 -12.5336L338.886 286.313L332.577 294.535L-56.8872 -4.31154L-50.5782 -12.5336Z" fill="url(#paint5_linear_25756_2411)"/>
        <path fill-rule="evenodd" clip-rule="evenodd" d="M-15.1315 330.586L283.715 -58.8779L297.13 -48.5843L-1.71658 340.88L-15.1315 330.586Z" fill="url(#paint6_linear_25756_2411)"/>
        <path fill-rule="evenodd" clip-rule="evenodd" d="M-103.245 166.28L383.464 102.204L385.244 115.723L-101.465 179.8L-103.245 166.28Z" fill="url(#paint7_linear_25756_2411)"/>
        <path fill-rule="evenodd" clip-rule="evenodd" d="M169.522 384.819L105.446 -101.89L112.476 -102.816L176.553 383.894L169.522 384.819Z" fill="url(#paint8_linear_25756_2411)"/>
        <path fill-rule="evenodd" clip-rule="evenodd" d="M-103.51 118.551L386.348 150.658L385.51 163.449L-104.348 131.342L-103.51 118.551Z" fill="url(#paint9_linear_25756_2411)"/>
        <path fill-rule="evenodd" clip-rule="evenodd" d="M121.816 385.725L153.923 -104.133L160.183 -103.723L128.076 386.135L121.816 385.725Z" fill="url(#paint10_linear_25756_2411)"/>
        <path fill-rule="evenodd" clip-rule="evenodd" d="M-48.8473 296.791L320.238 -26.8877L330.847 -14.7899L-38.2379 308.889L-48.8473 296.791Z" fill="url(#paint11_linear_25756_2411)"/>
        <path fill-rule="evenodd" clip-rule="evenodd" d="M299.251 328.69L-24.428 -40.3945L-17.2513 -46.6883L306.428 322.397L299.251 328.69Z" fill="url(#paint12_linear_25756_2411)"/>
        <path fill-rule="evenodd" clip-rule="evenodd" d="M-76.6687 27.4243L363.614 244.548L358.669 254.577L-81.6143 37.453L-76.6687 27.4243Z" fill="url(#paint13_linear_25756_2411)"/>
        <path fill-rule="evenodd" clip-rule="evenodd" d="M24.4887 357.222L241.612 -83.061L257.511 -75.2205L40.3878 365.062L24.4887 357.222Z" fill="url(#paint14_linear_25756_2411)"/>
        <path fill-rule="evenodd" clip-rule="evenodd" d="M-93.7515 213.056L371.105 55.2588L375.751 68.9462L-89.1053 226.744L-93.7515 213.056Z" fill="url(#paint15_linear_25756_2411)"/>
        <path fill-rule="evenodd" clip-rule="evenodd" d="M216.153 374.701L58.3555 -90.1553L65.8448 -92.6976L223.642 372.159L216.153 374.701Z" fill="url(#paint16_linear_25756_2411)"/>
    </g>
    <defs>
        <linearGradient id="paint0_linear_25756_2411" x1="122.494" y1="117.496" x2="116.811" y2="142.232" gradientUnits="userSpaceOnUse">
            <stop stop-color="#FBFF3A"/>
            <stop offset="1" stop-color="#03111C" stop-opacity="0"/>
        </linearGradient>
        <linearGradient id="paint1_linear_25756_2411" x1="117.992" y1="101.027" x2="163.232" y2="104.385" gradientUnits="userSpaceOnUse">
            <stop stop-color="#FBFF3A"/>
            <stop offset="1" stop-color="#03111C" stop-opacity="0"/>
        </linearGradient>
        <linearGradient id="paint2_linear_25756_2411" x1="98.2699" y1="269.01" x2="109.506" y2="271.631" gradientUnits="userSpaceOnUse">
            <stop stop-color="#FBFF3A"/>
            <stop offset="1" stop-color="#03111C" stop-opacity="0"/>
        </linearGradient>
        <linearGradient id="paint3_linear_25756_2411" x1="108.851" y1="133.236" x2="126.258" y2="160.431" gradientUnits="userSpaceOnUse">
            <stop stop-color="#FBFF3A"/>
            <stop offset="1" stop-color="#03111C" stop-opacity="0"/>
        </linearGradient>
        <linearGradient id="paint4_linear_25756_2411" x1="141.696" y1="168.263" x2="157.44" y2="158.616" gradientUnits="userSpaceOnUse">
            <stop stop-color="#FBFF3A"/>
            <stop offset="1" stop-color="#03111C" stop-opacity="0"/>
        </linearGradient>
        <linearGradient id="paint5_linear_25756_2411" x1="131.41" y1="114.142" x2="118.611" y2="131.941" gradientUnits="userSpaceOnUse">
            <stop stop-color="#FBFF3A"/>
            <stop offset="1" stop-color="#03111C" stop-opacity="0"/>
        </linearGradient>
        <linearGradient id="paint6_linear_25756_2411" x1="106.389" y1="144.643" x2="135.809" y2="164.936" gradientUnits="userSpaceOnUse">
            <stop stop-color="#FBFF3A"/>
            <stop offset="1" stop-color="#03111C" stop-opacity="0"/>
        </linearGradient>
        <linearGradient id="paint7_linear_25756_2411" x1="114.589" y1="123.947" x2="119.517" y2="152.358" gradientUnits="userSpaceOnUse">
            <stop stop-color="#FBFF3A"/>
            <stop offset="1" stop-color="#03111C" stop-opacity="0"/>
        </linearGradient>
        <linearGradient id="paint8_linear_25756_2411" x1="133.632" y1="166.137" x2="148.462" y2="163.863" gradientUnits="userSpaceOnUse">
            <stop stop-color="#FBFF3A"/>
            <stop offset="1" stop-color="#03111C" stop-opacity="0"/>
        </linearGradient>
        <linearGradient id="paint9_linear_25756_2411" x1="118.344" y1="120.339" x2="117.612" y2="147.438" gradientUnits="userSpaceOnUse">
            <stop stop-color="#FBFF3A"/>
            <stop offset="1" stop-color="#03111C" stop-opacity="0"/>
        </linearGradient>
        <linearGradient id="paint10_linear_25756_2411" x1="130.089" y1="164.296" x2="143.347" y2="164.915" gradientUnits="userSpaceOnUse">
            <stop stop-color="#FBFF3A"/>
            <stop offset="1" stop-color="#03111C" stop-opacity="0"/>
        </linearGradient>
        <linearGradient id="paint11_linear_25756_2411" x1="107.149" y1="138.738" x2="130.783" y2="163.201" gradientUnits="userSpaceOnUse">
            <stop stop-color="#FBFF3A"/>
            <stop offset="1" stop-color="#03111C" stop-opacity="0"/>
        </linearGradient>
        <linearGradient id="paint12_linear_25756_2411" x1="146.084" y1="168.409" x2="160.879" y2="154.666" gradientUnits="userSpaceOnUse">
            <stop stop-color="#FBFF3A"/>
            <stop offset="1" stop-color="#03111C" stop-opacity="0"/>
        </linearGradient>
        <linearGradient id="paint13_linear_25756_2411" x1="126.895" y1="115.433" x2="117.151" y2="136.984" gradientUnits="userSpaceOnUse">
            <stop stop-color="#FBFF3A"/>
            <stop offset="1" stop-color="#03111C" stop-opacity="0"/>
        </linearGradient>
        <linearGradient id="paint14_linear_25756_2411" x1="106.669" y1="150.784" x2="141.103" y2="165.547" gradientUnits="userSpaceOnUse">
            <stop stop-color="#FBFF3A"/>
            <stop offset="1" stop-color="#03111C" stop-opacity="0"/>
        </linearGradient>
        <linearGradient id="paint15_linear_25756_2411" x1="111.377" y1="128.27" x2="122.445" y2="156.758" gradientUnits="userSpaceOnUse">
            <stop stop-color="#FBFF3A"/>
            <stop offset="1" stop-color="#03111C" stop-opacity="0"/>
        </linearGradient>
        <linearGradient id="paint16_linear_25756_2411" x1="137.52" y1="167.484" x2="153.234" y2="161.731" gradientUnits="userSpaceOnUse">
            <stop stop-color="#FBFF3A"/>
            <stop offset="1" stop-color="#03111C" stop-opacity="0"/>
        </linearGradient>
    </defs>
</svg>
