<svg width="360" height="360" viewBox="0 0 360 360" fill="none" xmlns="http://www.w3.org/2000/svg">
    <mask id="mask0_25756_2392" style="mask-type:alpha" maskUnits="userSpaceOnUse" x="0" y="0" width="360" height="360">
        <path fill-rule="evenodd" clip-rule="evenodd" d="M180 360C279.411 360 360 279.411 360 180C360 80.5887 279.411 0 180 0C80.5887 0 0 80.5887 0 180C0 279.411 80.5887 360 180 360ZM180 294.545C243.262 294.545 294.545 243.262 294.545 180C294.545 116.738 243.262 65.4545 180 65.4545C116.738 65.4545 65.4545 116.738 65.4545 180C65.4545 243.262 116.738 294.545 180 294.545Z" fill="#D9D9D9"/>
    </mask>
    <g mask="url(#mask0_25756_2392)">
        <path fill-rule="evenodd" clip-rule="evenodd" d="M171.272 425.455V-65.4541H188.727V425.455H171.272Z" fill="url(#paint0_linear_25756_2392)"/>
        <path fill-rule="evenodd" clip-rule="evenodd" d="M180 185.454H-65.4547V174.545H180V185.454Z" fill="url(#paint1_linear_25756_2392)"/>
        <path fill-rule="evenodd" clip-rule="evenodd" d="M180 191.999H425.455V167.999H180V191.999Z" fill="url(#paint2_linear_25756_2392)"/>
        <path fill-rule="evenodd" clip-rule="evenodd" d="M348.549 358.577L1.42346 11.4521L11.4515 1.42409L358.577 348.549L348.549 358.577Z" fill="url(#paint3_linear_25756_2392)"/>
        <path fill-rule="evenodd" clip-rule="evenodd" d="M360.891 13.7654L13.7655 360.891L-0.890891 346.234L346.234 -0.890952L360.891 13.7654Z" fill="url(#paint4_linear_25756_2392)"/>
        <path fill-rule="evenodd" clip-rule="evenodd" d="M77.2501 403.118L265.113 -50.4229L282.751 -43.1171L94.8878 410.424L77.2501 403.118Z" fill="url(#paint5_linear_25756_2392)"/>
        <path fill-rule="evenodd" clip-rule="evenodd" d="M404.37 279.726L-49.1708 91.8633L-44.3698 80.2728L409.171 268.136L404.37 279.726Z" fill="url(#paint6_linear_25756_2392)"/>
        <path fill-rule="evenodd" clip-rule="evenodd" d="M266.625 409.798L78.7621 -43.7432L93.3762 -49.7965L281.239 403.744L266.625 409.798Z" fill="url(#paint7_linear_25756_2392)"/>
        <path fill-rule="evenodd" clip-rule="evenodd" d="M411.05 96.3999L-42.4911 284.263L-51.0493 263.601L402.492 75.7386L411.05 96.3999Z" fill="url(#paint8_linear_25756_2392)"/>
        <path fill-rule="evenodd" clip-rule="evenodd" d="M219.727 422.361L123.955 -59.1152L140.272 -62.3608L236.043 419.116L219.727 422.361Z" fill="url(#paint9_linear_25756_2392)"/>
        <path fill-rule="evenodd" clip-rule="evenodd" d="M423 143.483L-58.4766 239.254L-62.9991 216.518L418.477 120.746L423 143.483Z" fill="url(#paint10_linear_25756_2392)"/>
        <path fill-rule="evenodd" clip-rule="evenodd" d="M380.376 321.922L-27.8002 49.188L-20.3757 38.0765L387.8 310.811L380.376 321.922Z" fill="url(#paint11_linear_25756_2392)"/>
        <path fill-rule="evenodd" clip-rule="evenodd" d="M324.644 -18.5578L51.91 389.618L35.3562 378.557L308.091 -29.6187L324.644 -18.5578Z" fill="url(#paint12_linear_25756_2392)"/>
        <path fill-rule="evenodd" clip-rule="evenodd" d="M123.153 418.955L218.925 -62.521L236.847 -58.9562L141.075 422.52L123.153 418.955Z" fill="url(#paint13_linear_25756_2392)"/>
        <path fill-rule="evenodd" clip-rule="evenodd" d="M419.593 233.637L-61.8831 137.865L-59.5952 126.363L421.881 222.135L419.593 233.637Z" fill="url(#paint14_linear_25756_2392)"/>
        <path fill-rule="evenodd" clip-rule="evenodd" d="M310.132 388.255L37.3975 -19.9209L49.8695 -28.2545L322.604 379.922L310.132 388.255Z" fill="url(#paint15_linear_25756_2392)"/>
        <path fill-rule="evenodd" clip-rule="evenodd" d="M390.073 52.5907L-18.1029 325.325L-30.0729 307.411L378.103 34.6763L390.073 52.5907Z" fill="url(#paint16_linear_25756_2392)"/>
    </g>
    <defs>
        <linearGradient id="paint0_linear_25756_2392" x1="153.944" y1="203.959" x2="190.783" y2="202.031" gradientUnits="userSpaceOnUse">
            <stop stop-color="#FBFF3A"/>
            <stop offset="1" stop-color="#03111C" stop-opacity="0"/>
        </linearGradient>
        <linearGradient id="paint1_linear_25756_2392" x1="69.2519" y1="196.284" x2="67.7478" y2="173.295" gradientUnits="userSpaceOnUse">
            <stop stop-color="#FBFF3A"/>
            <stop offset="1" stop-color="#03111C" stop-opacity="0"/>
        </linearGradient>
        <linearGradient id="paint2_linear_25756_2392" x1="290.748" y1="215.826" x2="297.911" y2="166.064" gradientUnits="userSpaceOnUse">
            <stop stop-color="#FBFF3A"/>
            <stop offset="1" stop-color="#03111C" stop-opacity="0"/>
        </linearGradient>
        <linearGradient id="paint3_linear_25756_2392" x1="181.972" y1="211.912" x2="202.256" y2="189.826" gradientUnits="userSpaceOnUse">
            <stop stop-color="#FBFF3A"/>
            <stop offset="1" stop-color="#03111C" stop-opacity="0"/>
        </linearGradient>
        <linearGradient id="paint4_linear_25756_2392" x1="218.82" y1="184.937" x2="186" y2="155.959" gradientUnits="userSpaceOnUse">
            <stop stop-color="#FBFF3A"/>
            <stop offset="1" stop-color="#03111C" stop-opacity="0"/>
        </linearGradient>
        <linearGradient id="paint5_linear_25756_2392" x1="144.503" y1="191.229" x2="182.591" y2="204.511" gradientUnits="userSpaceOnUse">
            <stop stop-color="#FBFF3A"/>
            <stop offset="1" stop-color="#03111C" stop-opacity="0"/>
        </linearGradient>
        <linearGradient id="paint6_linear_25756_2392" x1="194.968" y1="206.47" x2="204.193" y2="181.593" gradientUnits="userSpaceOnUse">
            <stop stop-color="#FBFF3A"/>
            <stop offset="1" stop-color="#03111C" stop-opacity="0"/>
        </linearGradient>
        <linearGradient id="paint7_linear_25756_2392" x1="167.353" y1="211.172" x2="197.607" y2="196.926" gradientUnits="userSpaceOnUse">
            <stop stop-color="#FBFF3A"/>
            <stop offset="1" stop-color="#03111C" stop-opacity="0"/>
        </linearGradient>
        <linearGradient id="paint8_linear_25756_2392" x1="214.911" y1="201.675" x2="193.96" y2="159.353" gradientUnits="userSpaceOnUse">
            <stop stop-color="#FBFF3A"/>
            <stop offset="1" stop-color="#03111C" stop-opacity="0"/>
        </linearGradient>
        <linearGradient id="paint9_linear_25756_2392" x1="160.316" y1="208.343" x2="194.421" y2="199.773" gradientUnits="userSpaceOnUse">
            <stop stop-color="#FBFF3A"/>
            <stop offset="1" stop-color="#03111C" stop-opacity="0"/>
        </linearGradient>
        <linearGradient id="paint10_linear_25756_2392" x1="210.25" y1="209.267" x2="197.396" y2="162.042" gradientUnits="userSpaceOnUse">
            <stop stop-color="#FBFF3A"/>
            <stop offset="1" stop-color="#03111C" stop-opacity="0"/>
        </linearGradient>
        <linearGradient id="paint11_linear_25756_2392" x1="188.838" y1="209.897" x2="203.585" y2="185.79" gradientUnits="userSpaceOnUse">
            <stop stop-color="#FBFF3A"/>
            <stop offset="1" stop-color="#03111C" stop-opacity="0"/>
        </linearGradient>
        <linearGradient id="paint12_linear_25756_2392" x1="218.022" y1="176.59" x2="181.72" y2="155.349" gradientUnits="userSpaceOnUse">
            <stop stop-color="#FBFF3A"/>
            <stop offset="1" stop-color="#03111C" stop-opacity="0"/>
        </linearGradient>
        <linearGradient id="paint13_linear_25756_2392" x1="148.573" y1="198.176" x2="186.8" y2="203.626" gradientUnits="userSpaceOnUse">
            <stop stop-color="#FBFF3A"/>
            <stop offset="1" stop-color="#03111C" stop-opacity="0"/>
        </linearGradient>
        <linearGradient id="paint14_linear_25756_2392" x1="200.082" y1="201.844" x2="204.063" y2="177.362" gradientUnits="userSpaceOnUse">
            <stop stop-color="#FBFF3A"/>
            <stop offset="1" stop-color="#03111C" stop-opacity="0"/>
        </linearGradient>
        <linearGradient id="paint15_linear_25756_2392" x1="174.693" y1="212.361" x2="200.244" y2="193.575" gradientUnits="userSpaceOnUse">
            <stop stop-color="#FBFF3A"/>
            <stop offset="1" stop-color="#03111C" stop-opacity="0"/>
        </linearGradient>
        <linearGradient id="paint16_linear_25756_2392" x1="217.79" y1="193.432" x2="190.122" y2="157.306" gradientUnits="userSpaceOnUse">
            <stop stop-color="#FBFF3A"/>
            <stop offset="1" stop-color="#03111C" stop-opacity="0"/>
        </linearGradient>
    </defs>
</svg>
